<svg version="1.1" id="Layer_1" xmlns="http://www.w3.org/2000/svg" xmlns:xlink="http://www.w3.org/1999/xlink" x="0px" y="0px"
	 width="100%" viewBox="0 0 1024 1024" enable-background="new 0 0 1024 1024" xml:space="preserve">
<path fill="#000000" opacity="1.000000" stroke="none" 
	d="
M366.999878,726.384399 
	C352.501038,726.377380 338.501678,726.301819 324.503601,726.401123 
	C319.907593,726.433716 316.644196,724.994141 315.819336,720.114502 
	C314.936249,714.890259 317.138550,711.598145 322.405060,710.020630 
	C342.499878,704.001648 348.457397,696.605408 350.891937,675.329285 
	C351.405396,670.841858 351.693176,666.385986 351.693146,661.889465 
	C351.691986,552.898254 351.681183,443.907043 351.715454,334.915833 
	C351.717926,327.059937 351.216675,319.269196 349.542480,311.596283 
	C346.943665,299.685944 339.413055,292.442261 327.851440,289.150360 
	C325.769745,288.557587 323.662384,288.054871 321.581207,287.460419 
	C316.906952,286.125366 315.414001,282.688568 315.783234,278.242310 
	C316.146362,273.870056 318.814819,271.673370 323.069275,271.574738 
	C332.717468,271.350952 342.369232,271.120270 352.018829,271.146332 
	C375.322906,271.209320 398.626434,271.455933 421.930511,271.554016 
	C436.928131,271.617065 451.926971,271.462769 466.923950,271.577820 
	C473.473724,271.628082 475.969696,274.715668 475.294312,281.054321 
	C475.001587,283.802002 473.602112,285.720795 471.275665,286.982513 
	C470.265656,287.530273 469.103424,287.823181 467.984344,288.140137 
	C449.965057,293.243500 442.801056,302.218964 441.188385,320.863251 
	C440.468628,329.184448 440.316833,337.487762 440.316864,345.816162 
	C440.317017,384.979645 440.297424,424.143127 440.310120,463.306610 
	C440.310791,465.418579 439.912231,467.624908 441.046082,469.575195 
	C443.320801,470.122192 444.154572,468.315735 445.235809,467.259338 
	C477.772736,435.469910 510.274811,403.644836 542.769104,371.811798 
	C558.838684,356.069275 574.874756,340.292603 590.944275,324.550049 
	C593.830017,321.722992 596.363831,318.672272 597.849792,314.860504 
	C600.382568,308.363525 598.070618,303.751038 591.350647,301.973877 
	C590.069153,301.634949 588.747253,301.447144 587.441650,301.201599 
	C582.469788,300.266479 580.337219,297.663757 580.704468,292.973969 
	C581.090149,288.049744 584.214111,286.661743 588.609253,286.667267 
	C614.273865,286.699524 639.938416,286.685669 665.603027,286.684570 
	C676.102173,286.684113 686.603149,286.792297 697.099548,286.619324 
	C701.787964,286.542084 704.364075,288.538879 704.939514,293.090179 
	C705.497131,297.501251 703.181763,301.444763 698.938904,302.174438 
	C681.014832,305.256927 667.412537,315.294312 654.765015,327.734192 
	C617.818909,364.073608 580.484070,400.017761 543.302124,436.117340 
	C535.412109,443.777710 527.501709,451.417328 519.655273,459.122070 
	C518.142700,460.607361 516.300049,461.883514 515.613098,463.966949 
	C515.837585,465.587524 517.021545,466.319641 518.097778,467.055725 
	C537.564758,480.369629 552.989868,497.932037 568.538635,515.314819 
	C596.418091,546.482727 624.023132,577.895813 651.875732,609.087830 
	C676.287231,636.426270 700.154724,664.272156 726.086731,690.214111 
	C746.022522,710.157593 768.411194,726.270569 796.058777,733.969299 
	C802.667664,735.809570 809.376648,736.974670 816.172363,737.632874 
	C819.340149,737.939636 821.782837,738.878601 822.210510,742.338440 
	C822.659302,745.969177 821.074158,748.333374 817.468079,749.477234 
	C799.153503,755.286560 780.463623,759.308777 761.345215,761.216187 
	C739.294800,763.416077 717.473206,762.315247 695.928284,756.686707 
	C671.833984,750.392212 652.081665,737.031860 634.463074,719.919067 
	C618.419373,704.335815 603.933167,687.339355 589.229248,670.547302 
	C546.312317,621.535400 503.555908,572.382935 460.656372,523.355713 
	C457.975159,520.291565 455.679199,515.713684 450.074219,518.081787 
	C444.514343,520.430786 440.303680,526.187012 440.303345,531.715942 
	C440.300842,575.379028 440.303406,619.042175 440.328705,662.705261 
	C440.333160,670.381958 441.048676,677.998718 442.807312,685.485107 
	C446.219025,700.008667 456.415710,706.921570 470.199341,709.755798 
	C476.770050,711.106873 479.198090,713.452759 479.166382,718.476562 
	C479.133514,723.684021 476.300690,726.347656 470.485962,726.360168 
	C449.154480,726.406250 427.822815,726.393555 406.491241,726.396606 
	C393.494141,726.398438 380.497009,726.388550 366.999878,726.384399 
z"/>
<path fill="#000000" opacity="1.000000" stroke="none" 
	d="
M544.573975,853.860596 
	C480.259460,859.259399 419.643494,847.217590 362.708344,818.244873 
	C299.621063,786.141602 248.807297,740.331360 213.179703,678.674988 
	C190.499802,639.425537 176.675201,597.071350 170.564819,552.151672 
	C167.118652,526.817688 165.988892,501.418060 167.821838,475.923370 
	C172.103790,416.364899 189.392487,360.981415 221.476898,310.435089 
	C254.125092,259.000549 297.043304,218.422882 350.738953,189.574966 
	C388.830475,169.110397 429.433380,156.464066 472.501373,151.451035 
	C495.440613,148.780945 518.330811,148.037308 541.287476,149.900360 
	C565.914734,151.899002 590.106873,156.489288 613.747498,163.740509 
	C664.782776,179.394409 709.870117,205.405014 748.712769,242.029419 
	C796.042969,286.656494 828.302979,340.397614 845.361694,403.214294 
	C848.252319,413.858582 848.247681,413.888397 837.084961,413.860809 
	C830.592957,413.844757 824.097839,413.563049 817.610474,413.700867 
	C813.574890,413.786560 812.710388,411.253632 811.848572,408.178406 
	C803.609924,378.781219 791.372070,351.122192 774.841248,325.473785 
	C743.609009,277.015564 702.113586,239.901917 650.487732,214.181732 
	C614.268616,196.137238 575.994263,185.661896 535.583191,183.012711 
	C459.078522,177.997406 389.404358,197.661240 328.137024,243.518402 
	C262.055511,292.978851 221.511642,359.225006 205.375244,440.266876 
	C201.233612,461.067444 198.987091,482.124084 199.475906,503.293457 
	C201.587616,594.745117 233.846771,673.203674 301.722351,735.639465 
	C346.726898,777.037231 399.004761,804.929626 459.485382,816.001770 
	C534.983459,829.822998 605.944641,817.205994 671.809448,777.546509 
	C678.514648,773.509155 684.560059,771.768799 691.884155,775.315674 
	C695.749146,777.187561 700.002441,778.357910 704.184570,779.443909 
	C707.750916,780.369934 710.427185,782.026978 711.008301,785.792297 
	C711.611145,789.698303 709.547302,792.359741 706.421936,794.524780 
	C694.215698,802.980591 681.572388,810.698486 668.358032,817.476685 
	C631.689209,836.285461 592.892639,848.154175 551.989075,853.140320 
	C549.678284,853.421936 547.351013,853.568298 544.573975,853.860596 
z"/>
</svg>